<?xml version="1.0" encoding="UTF-8"?>
<svg version="1.1" xmlns="http://www.w3.org/2000/svg" width="1024" height="1024">
<path d="M0 0 C0.76366105 -0.00297112 1.52732211 -0.00594224 2.31412441 -0.0090034 C4.85760569 -0.01763261 7.40103958 -0.01919377 9.9445343 -0.02069092 C11.77516275 -0.0253235 13.60579024 -0.03034874 15.43641663 -0.03573608 C20.40206231 -0.04882698 25.36769448 -0.05529955 30.33335471 -0.05974674 C33.44403814 -0.06268517 36.55471795 -0.0667916 39.66539955 -0.07125092 C49.42149484 -0.08492232 59.17758176 -0.09458853 68.93368596 -0.09845281 C80.15017945 -0.10292111 91.36655032 -0.12041325 102.58300656 -0.1494534 C111.27978148 -0.17117804 119.9765222 -0.18116294 128.67332393 -0.18249393 C133.8539161 -0.18353504 139.03439298 -0.18929238 144.21495628 -0.20731354 C149.10125029 -0.22397978 153.98734466 -0.22586131 158.87365723 -0.21717453 C160.65036879 -0.21641374 162.42709191 -0.22061738 164.20377541 -0.23063278 C212.35510968 -0.48576566 257.82421032 17.85102777 294.11763 49.14044189 C295.32225891 50.16137939 295.32225891 50.16137939 296.55122375 51.20294189 C301.68528696 55.67163051 306.44850979 60.44488605 311.11763 65.39044189 C311.96430237 66.27639038 311.96430237 66.27639038 312.82807922 67.18023682 C315.7480063 70.32576631 317.85461689 72.94092328 319.11763 77.14044189 C319.77763 77.14044189 320.43763 77.14044189 321.11763 77.14044189 C322.72173163 79.23194363 324.18070032 81.3116918 325.61763 83.51544189 C326.05832825 84.18809082 326.49902649 84.86073975 326.95307922 85.55377197 C344.62126704 112.90904395 354.67491974 141.94134355 359.11763 174.14044189 C359.28725754 175.20112885 359.45688507 176.2618158 359.63165283 177.35464478 C360.45556644 184.03724425 360.27407878 190.78494665 360.27876282 197.50714111 C360.28339837 199.06217566 360.28842401 200.61720908 360.29380798 202.17224121 C360.30687667 206.3841223 360.31336795 210.59598747 360.31781864 214.80788565 C360.32076277 217.452107 360.32487037 220.09632415 360.32932281 222.74054337 C360.34299299 231.04968108 360.35265786 239.35880901 360.35652471 247.66795719 C360.36098235 257.18982509 360.37842467 266.71154779 360.4075253 276.23337162 C360.42934009 283.63430556 360.43923965 291.03519931 360.44056582 298.43616498 C360.44160131 302.83558132 360.44723245 307.23486117 360.46538544 311.63424301 C360.71177378 375.03706163 346.83919468 432.78855303 301.11763 479.14044189 C273.25839144 507.00870808 236.81513325 525.13880563 198.36763 532.95294189 C196.90825012 533.26340454 196.90825012 533.26340454 195.41938782 533.58013916 C174.83296096 537.5116898 153.20657151 536.29359078 132.33878565 536.2747674 C128.55493259 536.27218082 124.77108158 536.27459851 120.98722839 536.27615356 C114.63860124 536.27795776 108.28998583 536.27561594 101.94136047 536.27081299 C94.67560416 536.26537852 87.40987596 536.26713427 80.14412034 536.27263939 C73.82909063 536.27722669 67.51406922 536.27779389 61.19903839 536.27520072 C57.46112413 536.2736678 53.72322293 536.27335941 49.9853096 536.27673721 C36.10387328 536.28746301 22.22931626 536.24596799 8.35542297 535.73370361 C7.38782106 535.70021883 6.42021915 535.66673405 5.42329597 535.63223457 C-34.37387716 533.93632482 -74.03408354 518.84462086 -104.81596375 493.64825439 C-107.5021409 491.45140633 -110.23355222 489.34918793 -113.00737 487.26544189 C-116.13778009 484.84939254 -118.5278526 482.34258555 -120.88237 479.14044189 C-121.54237 478.81044189 -122.20237 478.48044189 -122.88237 478.14044189 C-122.88237 477.48044189 -122.88237 476.82044189 -122.88237 476.14044189 C-123.87237 475.81044189 -124.86237 475.48044189 -125.88237 475.14044189 C-129.14321291 471.69959491 -131.9702896 467.87792758 -134.88237 464.14044189 C-135.3435321 463.55810791 -135.80469421 462.97577393 -136.27983093 462.37579346 C-156.27868895 437.0547682 -169.80556374 408.87166099 -176.69487 377.32794189 C-176.88976013 376.46604248 -177.08465027 375.60414307 -177.28544617 374.71612549 C-181.68954238 353.08966449 -181.18726675 330.70227325 -181.151021 308.73825979 C-181.14585665 304.61134196 -181.15068055 300.48443174 -181.15379333 296.35751343 C-181.15740246 289.43732068 -181.1527143 282.51717102 -181.14311218 275.59698486 C-181.13222494 267.66027053 -181.13576765 259.723659 -181.14676499 251.78694713 C-181.15591561 244.90039261 -181.15708586 238.01386857 -181.15188766 231.12730992 C-181.14881131 227.04576192 -181.14823623 222.96426182 -181.15496063 218.88271713 C-181.21677045 175.46012791 -181.21677045 175.46012791 -176.69487 155.07794189 C-176.48056335 154.08955322 -176.26625671 153.10116455 -176.04545593 152.08282471 C-167.29410751 113.35160941 -147.81529512 81.02757534 -119.88237 53.14044189 C-119.32936218 52.54102783 -118.77635437 51.94161377 -118.20658875 51.32403564 C-92.11168956 23.48532458 -51.87457366 6.95723008 -14.88237 1.14044189 C-13.32412899 0.88634237 -13.32412899 0.88634237 -11.73440838 0.62710953 C-7.80044451 0.1300914 -3.95626917 -0.00488772 0 0 Z M69.74263 121.20294189 C55.81317939 129.95403838 41.5576926 137.43703558 26.11763 143.14044189 C25.48897034 143.37996582 24.86031067 143.61948975 24.21260071 143.86627197 C19.40890956 145.69420442 14.57454727 147.38404795 9.68013 148.95294189 C8.88389221 149.20865967 8.08765442 149.46437744 7.26728821 149.72784424 C-0.85545091 152.26035046 -9.11311282 154.17405523 -17.42900085 155.96002197 C-24.60307069 157.57006121 -29.93266106 159.45749237 -34.88237 165.14044189 C-37.11407045 171.09244658 -37.17129407 177.47234272 -37.14115906 183.74908447 C-37.1446637 184.6643692 -37.14816833 185.57965393 -37.15177917 186.52267456 C-37.16052675 189.52685304 -37.1547666 192.53079255 -37.147995 195.53497314 C-37.14934492 197.64896184 -37.15128816 199.76295023 -37.15379333 201.87693787 C-37.15673628 206.30586709 -37.15247838 210.73471547 -37.14311218 215.16363525 C-37.13179525 220.7833019 -37.1382329 226.40277582 -37.15025711 232.02243519 C-37.1575643 236.39220061 -37.15514636 240.76192215 -37.15000153 245.13168907 C-37.14868533 247.20010082 -37.15023979 249.26851682 -37.15496063 251.3369236 C-37.18508048 268.26023941 -36.85781796 285.46564474 -32.63237 301.95294189 C-32.41621033 302.82128662 -32.20005066 303.68963135 -31.9773407 304.58428955 C-23.26708656 338.23909681 -0.86201532 367.04012198 27.11763 387.14044189 C27.65774719 387.53553955 28.19786438 387.93063721 28.75434875 388.33770752 C44.65726425 399.87770914 70.65355751 418.10528863 91.164505 416.78497314 C98.17812254 415.25422328 104.65096398 412.18756957 111.11763 409.14044189 C111.81114563 408.81447021 112.50466125 408.48849854 113.2191925 408.15264893 C117.90955394 405.92227506 122.52624308 403.56726698 127.11763 401.14044189 C127.71140442 400.83026123 128.30517883 400.52008057 128.91694641 400.20050049 C143.91832133 392.29205333 156.9533194 381.88002099 169.11763 370.14044189 C170.04059875 369.28063721 170.9635675 368.42083252 171.914505 367.53497314 C194.96229867 345.49633428 210.93425467 312.79515546 212.21631622 280.66742134 C212.26099814 277.83979583 212.27558575 275.01358649 212.27876282 272.18560791 C212.28372772 271.11625 212.28869263 270.04689209 212.29380798 268.94512939 C212.3083437 265.42819564 212.31521592 261.91130693 212.320755 258.39434814 C212.32651189 255.93869527 212.33226955 253.4830424 212.33802795 251.02738953 C212.34851234 245.88725578 212.3543723 240.74713756 212.35786438 235.60699463 C212.36335505 229.03221784 212.38740641 222.45764751 212.41583633 215.88293552 C212.43448696 210.81362817 212.43966953 205.74437043 212.44120026 200.67503166 C212.44421992 198.25142216 212.45222516 195.8278134 212.46538544 193.40423775 C212.48250234 190.01088956 212.48055207 186.61804465 212.47407532 183.22467041 C212.48789749 181.73516121 212.48789749 181.73516121 212.5019989 180.21556091 C212.45960906 173.10043028 211.86482764 166.06985162 206.820755 160.69122314 C203.81997846 158.96967938 201.23597652 158.12302834 197.86763 157.32794189 C196.53250247 156.99658519 195.19790564 156.66308589 193.86372375 156.32794189 C193.1184845 156.14360596 192.37324524 155.95927002 191.60542297 155.76934814 C157.06487638 147.03760644 126.74793832 134.69893478 96.88960266 115.11212158 C87.48595088 109.95553105 77.70750683 116.03323479 69.74263 121.20294189 Z " fill="#0699FE" transform="translate(423.8823699951172,218.85955810546875)"/>
<path d="M0 0 C3.57308392 1.72404877 6.64470007 3.8130397 9.875 6.125 C36.05694772 24.48573982 66.21288329 35.51819353 97.515625 41.359375 C100 42 100 42 102 44 C102.19886386 46.85807661 102.27266617 49.61926237 102.25878906 52.47851562 C102.26404602 53.79620689 102.26404602 53.79620689 102.26940918 55.14051819 C102.27825102 58.06250796 102.27236069 60.98425747 102.265625 63.90625 C102.26697287 65.94535366 102.26891443 67.98445701 102.27142334 70.02355957 C102.27437948 74.31440262 102.27006838 78.60516267 102.26074219 82.89599609 C102.24946253 88.34679196 102.2558301 93.79738837 102.26788712 99.24817657 C102.27519169 103.4711857 102.27277687 107.69414937 102.26763153 111.91716003 C102.2663126 113.92302983 102.2678799 115.92890398 102.27259064 117.93476868 C102.30101157 133.46731865 102.08587416 149.35217892 97.9375 164.4375 C97.72617432 165.21206543 97.51484863 165.98663086 97.29711914 166.78466797 C91.75982859 185.85478141 81.30217486 203.25581554 67 217 C66.13375 217.87140625 65.2675 218.7428125 64.375 219.640625 C49.01143311 234.90311579 31.07719173 246.51408202 11.5 255.6875 C10.78303955 256.0388501 10.0660791 256.3902002 9.32739258 256.75219727 C3.19683011 259.50552039 -1.7374987 259.35185006 -8.10693359 257.33178711 C-10.26216816 256.50906825 -12.3449206 255.59589634 -14.4375 254.625 C-15.20755371 254.2734082 -15.97760742 253.92181641 -16.77099609 253.55957031 C-49.99431473 237.94966994 -81.48617022 211.68343094 -94.71875 176.58203125 C-102.13258994 155.81616783 -103.15674969 135.43130305 -103.09765625 113.60546875 C-103.09578742 111.56138646 -103.09436572 109.51730372 -103.09336853 107.47322083 C-103.08957992 102.13535287 -103.07978154 96.79751282 -103.06866455 91.45965576 C-103.05837114 85.99589414 -103.05385404 80.53212793 -103.04882812 75.06835938 C-103.03815542 64.3788941 -103.02112378 53.68944938 -103 43 C-100.34126905 42.11375635 -97.81354852 41.50777612 -95.07421875 40.94140625 C-71.94437664 35.99793321 -48.73282437 29.64306393 -28 18 C-27.07703125 17.5359375 -26.1540625 17.071875 -25.203125 16.59375 C-16.20408972 12.01435927 -8.15031674 5.91784492 0 0 Z " fill="#0597FE" transform="translate(512,353)"/>
<path d="M0 0 C3.42544036 3.09199041 5.6285643 6.45072175 7.75 10.5 C8.09144043 11.1494458 8.43288086 11.7988916 8.78466797 12.46801758 C20.19777344 34.74838435 26.59181662 58.29876466 30 83 C30.16962753 84.06068695 30.33925507 85.1213739 30.51402283 86.21420288 C31.33793644 92.89680236 31.15644877 99.64450476 31.16113281 106.36669922 C31.16576837 107.92173376 31.17079401 109.47676718 31.17617798 111.03179932 C31.18924666 115.2436804 31.19573794 119.45554558 31.20018864 123.66744375 C31.20313277 126.31166511 31.20724036 128.95588226 31.21169281 131.60010147 C31.22536299 139.90923919 31.23502785 148.21836712 31.2388947 156.52751529 C31.24335235 166.04938319 31.26079466 175.57110589 31.2898953 185.09292972 C31.31171008 192.49386367 31.32160965 199.89475741 31.32293582 207.29572308 C31.3239713 211.69513943 31.32960244 216.09441927 31.34775543 220.49380112 C31.59414378 283.89661973 17.72156467 341.64811113 -28 388 C-55.85923856 415.86826619 -92.30249675 433.99836373 -130.75 441.8125 C-132.20937988 442.12296265 -132.20937988 442.12296265 -133.69824219 442.43969727 C-154.28466904 446.37124791 -175.91105849 445.15314889 -196.77884436 445.1343255 C-200.56269741 445.13173893 -204.34654842 445.13415662 -208.13040161 445.13571167 C-214.47902876 445.13751587 -220.82764417 445.13517405 -227.17626953 445.13037109 C-234.44202584 445.12493662 -241.70775404 445.12669238 -248.97350967 445.1321975 C-255.28853937 445.13678479 -261.60356078 445.13735199 -267.91859162 445.13475883 C-271.65650587 445.1332259 -275.39440707 445.13291751 -279.1323204 445.13629532 C-293.01375672 445.14702111 -306.88831375 445.1055261 -320.76220703 444.59326172 C-321.72980894 444.55977694 -322.69741085 444.52629215 -323.69433403 444.49179268 C-362.27178374 442.84786001 -403.73844916 428.6589981 -433 403 C-429.89448334 403 -428.64738916 403.5393715 -426 405 C-426 405.66 -426 406.32 -426 407 C-423.03312999 408.64826111 -420.34373475 409.44271087 -417 410 C-417 410.99 -417 411.98 -417 413 C-416.27619141 413.27779297 -415.55238281 413.55558594 -414.80664062 413.84179688 C-412.13891953 414.94267273 -409.63976761 416.17537082 -407.09375 417.53125 C-405.73056641 418.25248047 -405.73056641 418.25248047 -404.33984375 418.98828125 C-402.44661458 419.99609375 -400.55338542 421.00390625 -398.66015625 422.01171875 C-397.75136719 422.49253906 -396.84257812 422.97335937 -395.90625 423.46875 C-394.67358398 424.12520508 -394.67358398 424.12520508 -393.41601562 424.79492188 C-390.98706581 426.00645141 -388.53311287 427.02780797 -386 428 C-385.67 427.34 -385.34 426.68 -385 426 C-385 426.99 -385 427.98 -385 429 C-384.39671875 429.12117188 -383.7934375 429.24234375 -383.171875 429.3671875 C-382.37265625 429.53476562 -381.5734375 429.70234375 -380.75 429.875 C-379.96109375 430.03742188 -379.1721875 430.19984375 -378.359375 430.3671875 C-376.02513476 430.99325856 -374.15100747 431.9201243 -372 433 C-369.67284 433.37400786 -367.33882138 433.70764733 -365 434 C-363.66082739 434.30903983 -362.32346746 434.62942911 -361 435 C-361 435.66 -361 436.32 -361 437 C-356.91947093 437.5140824 -352.83879592 438.02176901 -348.75390625 438.5 C-347.35677083 438.66666667 -345.95963542 438.83333333 -344.5625 439 C-343.84384766 439.0825 -343.12519531 439.165 -342.38476562 439.25 C-337.11278195 439.88721805 -337.11278195 439.88721805 -336 441 C-333.26838557 441.16134451 -330.56050393 441.25641596 -327.82592773 441.30981445 C-326.95119623 441.3301367 -326.07646473 441.35045895 -325.17522621 441.37139702 C-322.19894649 441.43758737 -319.2225837 441.49487646 -316.24609375 441.55078125 C-315.20157988 441.57159571 -314.157066 441.59241016 -313.08090019 441.61385536 C-283.99750267 442.18266827 -254.91048882 442.18759988 -225.82272851 442.18511117 C-219.75080376 442.18546421 -213.67893579 442.19716178 -207.60702902 442.2110464 C-201.63726382 442.22419262 -195.66752383 442.22948431 -189.69774431 442.22884732 C-186.18064502 442.22859623 -182.6636163 442.23123265 -179.14653206 442.24202538 C-164.95770023 442.2826287 -151.03878489 442.23131102 -137 440 C-135.78671524 439.81273849 -134.57343048 439.62547699 -133.32337952 439.43254089 C-127.73775382 438.55077451 -122.4362002 437.63796342 -117.1875 435.5 C-114.55738866 434.4865626 -112.59200907 433.95292412 -109.75 433.625 C-104.1159407 432.68599012 -99.2135466 430.27207648 -94 428 C-92.06268229 427.22870863 -90.1251832 426.4578727 -88.1875 425.6875 C-73.41843969 419.49526378 -59.38777912 411.16278967 -47 401 C-46.1028125 400.27941406 -45.205625 399.55882812 -44.28125 398.81640625 C-43.3634375 398.07261719 -42.445625 397.32882812 -41.5 396.5625 C-40.5821875 395.82128906 -39.664375 395.08007812 -38.71875 394.31640625 C-35.99567956 391.99631894 -33.50296636 389.55445143 -31 387 C-30.175 386.19820312 -29.35 385.39640625 -28.5 384.5703125 C-22.8530369 379.06522987 -22.8530369 379.06522987 -18 372.875 C-17.34 371.92625 -16.68 370.9775 -16 370 C-15.34 370 -14.68 370 -14 370 C-14 369.01 -14 368.02 -14 367 C-13.01 366.34 -12.02 365.68 -11 365 C-10.67 364.01 -10.34 363.02 -10 362 C-9.34 362 -8.68 362 -8 362 C-7.77183594 361.33742188 -7.54367187 360.67484375 -7.30859375 359.9921875 C-5.28661861 355.36880555 -2.46341186 351.28244505 0.27929688 347.05859375 C2.99338631 342.81150893 5.11365384 338.67363377 7 334 C7.65402907 332.66042238 8.32096917 331.32707926 9 330 C10.15722783 327.62977432 11.30252562 325.25579552 12.4375 322.875 C12.73720703 322.26140625 13.03691406 321.6478125 13.34570312 321.015625 C17.34599259 312.5811752 19.46068836 303.54468505 21.625 294.5 C21.94984375 293.19095703 21.94984375 293.19095703 22.28125 291.85546875 C23.70585949 285.9195959 24.54726676 280.08656532 25 274 C25.66 274 26.32 274 27 274 C27.88904484 253.94503683 28.15142171 233.93867159 28.1343255 213.86823225 C28.13173371 209.85157685 28.13415743 205.83492335 28.13571167 201.81826782 C28.1375119 195.09352193 28.13518213 188.36878716 28.13037109 181.64404297 C28.12491034 173.92304583 28.12671296 166.20207503 28.1321975 158.48107851 C28.13676397 151.77795037 28.13736267 145.07483007 28.13475883 138.37170088 C28.1332182 134.39989963 28.13294067 130.42811069 28.13629532 126.45631027 C28.16757804 83.37037159 24.38768539 41.89316763 1.26171875 4.1640625 C0 2 0 2 0 0 Z " fill="#0C61F8" transform="translate(753,310)"/>
<path d="M0 0 C0.33 0 0.66 0 1 0 C1.09329181 12.82328712 1.16406224 25.64649154 1.20724869 38.47005081 C1.22799154 44.42660894 1.25606188 50.38293236 1.30175781 56.33935547 C1.34569528 62.10361743 1.36923668 67.86765576 1.37950897 73.63207245 C1.38681538 75.81495425 1.4010786 77.9978259 1.42292023 80.18061066 C1.72719476 111.89319623 -6.52743273 139.46490766 -27 164 C-28.11375 165.34384766 -28.11375 165.34384766 -29.25 166.71484375 C-34.60385436 172.91957853 -40.54767103 177.97479473 -47 183 C-47.94101562 183.77988281 -48.88203125 184.55976562 -49.8515625 185.36328125 C-62.06136624 195.25416878 -85.04260666 213.1680048 -101.42578125 211.87890625 C-106.09488825 211.15749704 -110.16879888 209.6055539 -114.4375 207.625 C-115.20755371 207.2734082 -115.97760742 206.92181641 -116.77099609 206.55957031 C-146.86928598 192.41795756 -173.51862237 170.34655215 -189.625 141 C-190.12193359 140.10172485 -190.12193359 140.10172485 -190.62890625 139.18530273 C-192.77950876 135.05543059 -193.56910187 131.56519096 -194 127 C-192.02327882 128.97672118 -191.30603084 130.26310638 -190.1953125 132.7734375 C-189.69064453 133.8871875 -189.69064453 133.8871875 -189.17578125 135.0234375 C-188.47946879 136.58172785 -187.78671287 138.14161265 -187.09765625 139.703125 C-185.1884798 143.89895766 -183.45245809 146.84906663 -180 150 C-179.25 152.75 -179.25 152.75 -179 155 C-178.34 155 -177.68 155 -177 155 C-176.01 157.475 -176.01 157.475 -175 160 C-174.34 160 -173.68 160 -173 160 C-169 164.47058824 -169 164.47058824 -169 167 C-168.34 167 -167.68 167 -167 167 C-164.70460805 169.17767955 -162.52749938 171.43192374 -160.375 173.75 C-158.90383382 175.25659086 -158.90383382 175.25659086 -156 176 C-155.67 176.99 -155.34 177.98 -155 179 C-153.0177828 180.86194327 -153.0177828 180.86194327 -150.625 182.625 C-149.83351563 183.23601562 -149.04203125 183.84703125 -148.2265625 184.4765625 C-145.99159382 186.15542491 -145.99159382 186.15542491 -143 187 C-143 187.66 -143 188.32 -143 189 C-142.01 189 -141.02 189 -140 189 C-140 189.66 -140 190.32 -140 191 C-138.35 191.66 -136.7 192.32 -135 193 C-135 193.66 -135 194.32 -135 195 C-134.00419922 195.12955078 -134.00419922 195.12955078 -132.98828125 195.26171875 C-129.06536863 196.23090893 -125.76183524 197.95976367 -122.1875 199.8125 C-121.17719727 200.32780273 -121.17719727 200.32780273 -120.14648438 200.85351562 C-117.36692843 202.27122215 -114.58865094 203.68959153 -111.82861328 205.14501953 C-111.12849121 205.50837402 -110.42836914 205.87172852 -109.70703125 206.24609375 C-109.07901611 206.57665771 -108.45100098 206.90722168 -107.80395508 207.24780273 C-105.17005302 208.34606397 -102.80321613 208.28032161 -100 208 C-100 208.66 -100 209.32 -100 210 C-86.57328193 205.48453001 -86.57328193 205.48453001 -75 198 C-73.4310119 197.13996208 -71.84464566 196.31147649 -70.25 195.5 C-60.26439512 190.15150979 -49.85884602 183.18629794 -42 175 C-41.13375 174.154375 -40.2675 173.30875 -39.375 172.4375 C-36.99358358 170.24040181 -36.99358358 170.24040181 -36 168 C-35.01 168 -34.02 168 -33 168 C-32.731875 167.4225 -32.46375 166.845 -32.1875 166.25 C-30.97070811 163.94449957 -29.69666121 161.97943808 -28 160 C-27.34 160 -26.68 160 -26 160 C-25.73445312 159.43796875 -25.46890625 158.8759375 -25.1953125 158.296875 C-23.90653202 155.82039487 -22.42522052 153.57172562 -20.875 151.25 C-10.76357878 135.46013972 -4.39380112 119.51592439 -2.4375 100.8125 C-2 97 -2 97 -1 96 C-0.87466913 93.01776826 -0.81388422 90.05758366 -0.79467773 87.07397461 C-0.78477814 86.13748581 -0.77487854 85.20099701 -0.76467896 84.23612976 C-0.73296247 81.12489392 -0.70826659 78.01364278 -0.68359375 74.90234375 C-0.66303297 72.75142508 -0.64203675 70.60051054 -0.62062073 68.44960022 C-0.5653095 62.77622811 -0.51594028 57.10281899 -0.46777344 51.42938232 C-0.41762433 45.64494516 -0.36190394 39.86056204 -0.30664062 34.07617188 C-0.19894842 22.71749402 -0.09752818 11.35876935 0 0 Z " fill="#077EFC" transform="translate(612,400)"/>
<path d="M0 0 C0.33 0 0.66 0 1 0 C1.20155244 14.10021216 1.38451437 28.20056331 1.54658794 42.3012867 C1.62239021 48.84992726 1.70396605 55.39838643 1.79907227 61.94677734 C1.8907624 68.2749706 1.96684787 74.60318229 2.03244972 80.93169785 C2.06006428 83.33727814 2.0931519 85.74280249 2.13199425 88.14822769 C2.32842043 100.53131624 2.43847635 112.00970178 -1 124 C-1.36469305 125.61093432 -1.72109229 127.2238143 -2.0625 128.83984375 C-2.37374727 130.20601517 -2.68619444 131.57191394 -3 132.9375 C-3.15210938 133.62650391 -3.30421875 134.31550781 -3.4609375 135.02539062 C-4.51797023 139.60442177 -6.05206085 143.7033738 -8 148 C-8.32097656 148.82371094 -8.64195312 149.64742187 -8.97265625 150.49609375 C-10.31189149 153.76016138 -11.8619998 156.90815459 -13.4375 160.0625 C-13.73720703 160.67416016 -14.03691406 161.28582031 -14.34570312 161.91601562 C-15.98267699 165.20061611 -17.74505538 168.11186176 -20 171 C-20.45375 171.94875 -20.9075 172.8975 -21.375 173.875 C-22.82385865 176.66126664 -24.38162076 178.83823885 -26.44140625 181.19140625 C-27.62749607 182.56774606 -28.77441151 183.97795293 -29.90234375 185.40234375 C-34.10470464 190.6989903 -38.49350696 195.70162219 -43.25 200.5 C-43.74508057 201.00418457 -44.24016113 201.50836914 -44.75024414 202.02783203 C-47.63278453 204.88663784 -50.48875973 206.99195629 -54 209 C-55.49821396 210.18463429 -56.97667026 211.39456108 -58.4375 212.625 C-62.59059688 215.99743957 -66.87564497 218.99442636 -71.375 221.875 C-71.96982178 222.2560791 -72.56464355 222.6371582 -73.17749023 223.02978516 C-76.05601085 224.84861489 -78.94560953 226.50126182 -82 228 C-84.43759034 229.46582066 -86.85386357 230.96321249 -89.26953125 232.46484375 C-92.4281984 234.24074674 -95.65472338 235.60731598 -99 237 C-100.34919463 237.59286551 -101.69681326 238.18932835 -103.04296875 238.7890625 C-103.72423828 239.09070313 -104.40550781 239.39234375 -105.10742188 239.703125 C-106.50683119 240.3233327 -107.90525455 240.94576935 -109.30273438 241.5703125 C-118.29347263 245.53958229 -125.57482888 246.14172371 -135 243 C-136.81119289 242.45397861 -138.62375967 241.91249889 -140.4375 241.375 C-141.95847052 240.91712214 -143.47935206 240.45894807 -145 240 C-145 239.34 -145 238.68 -145 238 C-145.67289062 237.9071875 -146.34578125 237.814375 -147.0390625 237.71875 C-150.75782399 236.81604273 -153.98721049 235.22914558 -157.375 233.5 C-158.06601807 233.15050293 -158.75703613 232.80100586 -159.46899414 232.44091797 C-164.55437941 229.82986252 -169.52411512 227.04601986 -174.4375 224.125 C-175.08187012 223.74408203 -175.72624023 223.36316406 -176.39013672 222.97070312 C-180.87483056 220.25033888 -180.87483056 220.25033888 -182 218 C-177.0070307 218.53978046 -173.53730616 220.90495217 -169.375 223.5 C-160.2269716 229.03775628 -150.77597474 233.68108262 -141 238 C-139.92492187 238.47824219 -138.84984375 238.95648437 -137.7421875 239.44921875 C-128.00094139 243.40399816 -120.40231086 242.95160204 -110.8125 239 C-107.84929517 237.71927328 -104.92008239 236.37595846 -102 235 C-101.30648437 234.67402832 -100.61296875 234.34805664 -99.8984375 234.01220703 C-95.20807607 231.78183316 -90.59138692 229.42682508 -86 227 C-85.40622559 226.68981934 -84.81245117 226.37963867 -84.20068359 226.06005859 C-69.19687918 218.15033065 -56.17103263 207.73573104 -44 196 C-43.15050781 195.21367188 -42.30101562 194.42734375 -41.42578125 193.6171875 C-20.33136142 173.54934069 -8.1503606 146.32612503 -3 118 C-2.82014557 117.05164276 -2.64029114 116.10328552 -2.45498657 115.12619019 C-0.50333786 103.42651348 -0.64692352 91.71317731 -0.5859375 79.8828125 C-0.56719522 77.57110934 -0.5476196 75.2594128 -0.5272522 72.94772339 C-0.47624811 66.90793793 -0.43645392 60.86813037 -0.39910889 54.82824707 C-0.35886878 48.64716263 -0.30786839 42.46616761 -0.2578125 36.28515625 C-0.16142953 24.19016727 -0.07690604 12.09512743 0 0 Z " fill="#077BFC" transform="translate(637,392)"/>
<path d="M0 0 C3.42544036 3.09199041 5.6285643 6.45072175 7.75 10.5 C8.09144043 11.1494458 8.43288086 11.7988916 8.78466797 12.46801758 C20.19777344 34.74838435 26.59181662 58.29876466 30 83 C30.17028214 84.05545013 30.34056427 85.11090027 30.51600647 86.19833374 C31.35060659 92.96895765 31.1392169 99.81017719 31.12939453 106.62060547 C31.13075117 108.20159953 31.13253259 109.78259327 31.13470459 111.36358643 C31.13924836 115.64051516 31.13750176 119.91741967 31.1343255 124.19434881 C31.1317852 128.68198554 31.13414417 133.16962026 31.13571167 137.65725708 C31.13752887 145.19419729 31.13513924 152.73112769 31.13037109 160.26806641 C31.12493329 168.96355632 31.12668944 177.65902276 31.1321975 186.3545121 C31.13674616 193.8367231 31.13737049 201.31892706 31.13475883 208.801139 C31.13320519 213.26259058 31.1329771 217.72403116 31.13629532 222.18548203 C31.13919939 226.38307789 31.13715201 230.58064374 31.13140106 234.77823639 C31.13008684 236.31242193 31.13044464 237.84661003 31.13266373 239.38079453 C31.14306107 247.30405364 31.03446154 255.13175305 30 263 C29.67 263 29.34 263 29 263 C28.12453186 253.60208354 27.86555548 244.29056505 27.90234375 234.85668945 C27.90426851 233.38645987 27.90572966 231.91622962 27.9067688 230.44599915 C27.90990395 227.3059546 27.91613316 224.1659377 27.92483521 221.0259037 C27.93849986 216.04218895 27.94428189 211.05848296 27.94897461 206.07475281 C27.9609574 194.59125723 27.98297592 183.10778524 28.00520325 171.62430573 C28.02547694 161.10216883 28.04352896 150.58004017 28.05341816 140.05788773 C28.05754561 135.92376951 28.06378379 131.789678 28.07516479 127.65557289 C28.19357756 84.15608325 24.633435 42.29409845 1.26171875 4.1640625 C0 2 0 2 0 0 Z " fill="#0C78FA" transform="translate(753,310)"/>
<path d="M0 0 C0.66 0.33 1.32 0.66 2 1 C2.02725341 2.7290774 2.04650987 4.45828176 2.0625 6.1875 C2.07410156 7.15042969 2.08570313 8.11335938 2.09765625 9.10546875 C2 12 2 12 1.53125 14.3125 C0.77686886 18.12878107 0.62698104 21.93203753 0.4375 25.8125 C0.3748999 27.06848999 0.3748999 27.06848999 0.31103516 28.34985352 C-0.20395929 39.45586649 -0.37332466 50.47777211 0.87890625 61.546875 C0.99846763 63.96895724 0.58138512 65.67445953 0 68 C0.33 68.99 0.66 69.98 1 71 C1.08520979 73.7692265 1.11587333 76.5125385 1.09765625 79.28125 C1.0962413 80.0911438 1.09482635 80.9010376 1.09336853 81.73547363 C1.08777356 84.32368671 1.07523194 86.91181315 1.0625 89.5 C1.05748347 91.24348832 1.05292083 92.98697801 1.04882812 94.73046875 C1.04065585 97.92384581 1.02997197 101.1171905 1.01586914 104.31054688 C1.00627827 106.54035023 1 108.77017602 1 111 C1 144.5 1 144.5 0.78125 150.515625 C0.73613281 151.76601563 0.69101563 153.01640625 0.64453125 154.3046875 C0.59683594 155.60664062 0.54914063 156.90859375 0.5 158.25 C0.45230469 159.56742188 0.40460938 160.88484375 0.35546875 162.2421875 C0.23761991 165.49481548 0.11910507 168.74741782 0 172 C-0.33 172 -0.66 172 -1 172 C-1.33 174.64 -1.66 177.28 -2 180 C-2.33 180 -2.66 180 -3 180 C-3.04696223 160.56162806 -3.08210647 141.12326782 -3.10362434 121.68485069 C-3.11388617 112.65690577 -3.1278476 103.62899634 -3.15087891 94.60107422 C-3.17097035 86.72170123 -3.18375331 78.84235397 -3.18817699 70.96295607 C-3.19075804 66.8005521 -3.19671483 62.63822165 -3.21146011 58.47584152 C-3.34683483 18.70328781 -3.34683483 18.70328781 0 0 Z " fill="#0EB1FB" transform="translate(246,380)"/>
<path d="M0 0 C4.75 1.875 4.75 1.875 7 3 C7 3.66 7 4.32 7 5 C9.96687001 6.64826111 12.65626525 7.44271087 16 8 C16 8.99 16 9.98 16 11 C16.72380859 11.27779297 17.44761719 11.55558594 18.19335938 11.84179688 C20.86108047 12.94267273 23.36023239 14.17537082 25.90625 15.53125 C26.81503906 16.01207031 27.72382813 16.49289062 28.66015625 16.98828125 C30.55338542 17.99609375 32.44661458 19.00390625 34.33984375 20.01171875 C35.70302734 20.73294922 35.70302734 20.73294922 37.09375 21.46875 C37.91552734 21.90638672 38.73730469 22.34402344 39.58398438 22.79492188 C42.01293419 24.00645141 44.46688713 25.02780797 47 26 C47.33 25.34 47.66 24.68 48 24 C48 24.99 48 25.98 48 27 C48.60328125 27.12117187 49.2065625 27.24234375 49.828125 27.3671875 C50.62734375 27.53476562 51.4265625 27.70234375 52.25 27.875 C53.03890625 28.03742187 53.8278125 28.19984375 54.640625 28.3671875 C56.97486524 28.99325856 58.84899253 29.9201243 61 31 C63.32716 31.37400786 65.66117862 31.70764733 68 32 C69.33917261 32.30903983 70.67653254 32.62942911 72 33 C72 33.66 72 34.32 72 35 C76.08052907 35.5140824 80.16120408 36.02176901 84.24609375 36.5 C85.64322917 36.66666667 87.04036458 36.83333333 88.4375 37 C89.15615234 37.0825 89.87480469 37.165 90.61523438 37.25 C95.88721805 37.88721805 95.88721805 37.88721805 97 39 C99.91786865 39.16285688 102.81371801 39.26070822 105.734375 39.31640625 C106.65563171 39.33723267 107.57688843 39.35805908 108.52606201 39.3795166 C111.60061583 39.44643092 114.67525735 39.50495623 117.75 39.5625 C118.79857178 39.58367889 119.84714355 39.60485779 120.92749023 39.62667847 C146.61686899 40.14004815 172.30680522 40.1023587 198 40 C198 40.33 198 40.66 198 41 C197.41508789 41.02505615 196.83017578 41.0501123 196.22753906 41.07592773 C193.56815529 41.19222962 190.90909597 41.31480067 188.25 41.4375 C187.32960938 41.47681641 186.40921875 41.51613281 185.4609375 41.55664062 C184.57148438 41.59853516 183.68203125 41.64042969 182.765625 41.68359375 C181.94868164 41.72025146 181.13173828 41.75690918 180.29003906 41.79467773 C178.0492919 41.92859232 178.0492919 41.92859232 176.135849 42.50474548 C173.86273203 43.0318293 171.86798625 43.12698049 169.53637695 43.12939453 C168.21504509 43.13403214 168.21504509 43.13403214 166.86701965 43.13876343 C165.91703598 43.13679962 164.96705231 43.13483582 163.98828125 43.1328125 C162.9957988 43.13431305 162.00331635 43.1358136 160.98075867 43.13735962 C157.75796473 43.13971543 154.5352828 43.13346532 151.3125 43.125 C150.21832764 43.12278442 149.12415527 43.12056885 147.99682617 43.11828613 C140.66435499 43.10075724 133.33223491 43.06123157 126 43 C125.24233337 42.9937561 124.48466675 42.98751221 123.70404053 42.9810791 C80.99874127 42.57726473 32.07031366 31.1364254 0 1 C0 0.67 0 0.34 0 0 Z " fill="#0D6FF8" transform="translate(320,712)"/>
<path d="M0 0 C0 0.66 0 1.32 0 2 C-5.2906598 3.79019304 -10.62493501 5.40324401 -15.9765625 7 C-18.51769493 7.84047791 -20.63768813 8.77673907 -23 10 C-24.86080479 10.78906258 -26.72182082 11.57764403 -28.58520508 12.3605957 C-35.56317918 15.31272201 -41.88877515 18.46223994 -48 23 C-51 25 -51 25 -52.90234375 25.93359375 C-64.63208454 31.89675806 -74.94944915 41.59976878 -84 51 C-84.95647539 51.93939547 -85.91454528 52.87717345 -86.875 53.8125 C-89.13676954 56.00811144 -89.13676954 56.00811144 -91 59 C-91.66 59 -92.32 59 -93 59 C-93.24492187 59.57234375 -93.48984375 60.1446875 -93.7421875 60.734375 C-95.21110099 63.38024402 -96.95348244 65.14853139 -99.125 67.25 C-99.84945313 67.95640625 -100.57390625 68.6628125 -101.3203125 69.390625 C-102.15175781 70.18726563 -102.15175781 70.18726563 -103 71 C-103.66 70.67 -104.32 70.34 -105 70 C-96.2109375 59.74609375 -96.2109375 59.74609375 -94.60595703 57.87719727 C-93.52929405 56.61868987 -92.45739178 55.35609504 -91.39013672 54.08959961 C-87.57426419 49.57651623 -83.52384469 45.80064502 -79 42 C-78.15953125 41.26007813 -77.3190625 40.52015625 -76.453125 39.7578125 C-57.74022767 23.57787641 -25.63983694 0 0 0 Z " fill="#0CB9FC" transform="translate(388,225)"/>
<path d="M0 0 C1.28857407 -0.00137466 2.57714813 -0.00274933 3.9047699 -0.00416565 C5.31501794 -0.00062742 6.72526574 0.00300738 8.13551331 0.00672913 C9.6340637 0.00701147 11.13261424 0.00685233 12.63116455 0.00628662 C16.68435199 0.00600051 20.73750965 0.01186716 24.79069018 0.01886058 C29.03209961 0.02512509 33.27350976 0.02570037 37.5149231 0.02688599 C45.53995473 0.02999018 53.56497269 0.03819126 61.5899983 0.04823548 C70.72904171 0.05942496 79.86808577 0.06491421 89.00713432 0.06993091 C107.80066748 0.08037464 126.59418792 0.0979564 145.38771057 0.12025452 C145.38771057 0.45025452 145.38771057 0.78025452 145.38771057 1.12025452 C128.68404673 1.90436045 112.02638489 2.24606785 95.30521965 2.16485405 C91.51370737 2.14703381 87.7222395 2.13703444 83.93069458 2.12893677 C73.17275136 2.10483886 62.41487418 2.06887151 51.65699768 2.02430725 C45.01990827 1.99690644 38.38283857 1.98043085 31.74569893 1.96943855 C29.24496795 1.96329085 26.74424294 1.9533657 24.24354362 1.93935966 C10.79441273 1.86458136 -2.30226241 2.0494473 -15.61228943 4.12025452 C-16.60330658 4.27422195 -17.59432373 4.42818939 -18.6153717 4.58682251 C-20.80892555 4.94228074 -22.99137545 5.33257454 -25.17478943 5.74525452 C-26.27597107 5.94634827 -26.27597107 5.94634827 -27.3993988 6.15150452 C-29.13790656 6.4696628 -30.87525415 6.79415277 -32.61228943 7.12025452 C-32.94228943 6.46025452 -33.27228943 5.80025452 -33.61228943 5.12025452 C-30.42544515 4.47115771 -27.23770347 3.82657503 -24.04978943 3.18275452 C-23.15453552 3.00035217 -22.25928162 2.81794983 -21.3368988 2.63002014 C-20.45711365 2.45277405 -19.57732849 2.27552795 -18.67088318 2.09291077 C-17.86965027 1.93056946 -17.06841736 1.76822815 -16.24290466 1.60096741 C-10.79725493 0.60584125 -5.53954191 -0.00458192 0 0 Z " fill="#04A4FA" transform="translate(422.61228942871094,218.87974548339844)"/>
<path d="M0 0 C4.75 1.875 4.75 1.875 7 3 C7 3.66 7 4.32 7 5 C9.96687001 6.64826111 12.65626525 7.44271087 16 8 C16 8.99 16 9.98 16 11 C16.72380859 11.27779297 17.44761719 11.55558594 18.19335938 11.84179688 C20.86108047 12.94267273 23.36023239 14.17537082 25.90625 15.53125 C26.81503906 16.01207031 27.72382813 16.49289062 28.66015625 16.98828125 C30.55338542 17.99609375 32.44661458 19.00390625 34.33984375 20.01171875 C35.70302734 20.73294922 35.70302734 20.73294922 37.09375 21.46875 C37.91552734 21.90638672 38.73730469 22.34402344 39.58398438 22.79492188 C42.01293419 24.00645141 44.46688713 25.02780797 47 26 C47.33 25.34 47.66 24.68 48 24 C48 24.99 48 25.98 48 27 C48.60328125 27.12117187 49.2065625 27.24234375 49.828125 27.3671875 C50.62734375 27.53476562 51.4265625 27.70234375 52.25 27.875 C53.03890625 28.03742187 53.8278125 28.19984375 54.640625 28.3671875 C56.97486524 28.99325856 58.84899253 29.9201243 61 31 C63.32716 31.37400786 65.66117862 31.70764733 68 32 C69.33917261 32.30903983 70.67653254 32.62942911 72 33 C72 33.66 72 34.32 72 35 C76.07943519 35.51853338 80.1575996 36.0232294 84.24609375 36.46484375 C85.64322917 36.62239583 87.04036458 36.77994792 88.4375 36.9375 C89.15615234 37.01162109 89.87480469 37.08574219 90.61523438 37.16210938 C92.4196261 37.37168462 94.2122757 37.6778306 96 38 C96.33 38.66 96.66 39.32 97 40 C89.99268154 40.28513822 83.7863935 39.60012482 77 37.875 C75.63597046 37.5361377 75.63597046 37.5361377 74.24438477 37.19042969 C47.99701702 30.50570681 20.06005983 19.85040798 0 1 C0 0.67 0 0.34 0 0 Z " fill="#0A7DF9" transform="translate(320,712)"/>
<path d="M0 0 C0.66 0.33 1.32 0.66 2 1 C1.43410156 1.83660156 0.86820312 2.67320312 0.28515625 3.53515625 C-2.09671248 7.11058139 -4.34359757 10.75928568 -6.5625 14.4375 C-7.14161133 15.38206055 -7.14161133 15.38206055 -7.73242188 16.34570312 C-10.21292474 20.45733735 -12.16140705 24.56543917 -14 29 C-14.79932625 30.54853799 -15.61081647 32.09089221 -16.4375 33.625 C-18.93176229 38.53884606 -20.49293212 43.53429622 -22.0234375 48.81640625 C-22.93168424 51.77729061 -23.99376928 54.58199307 -25.1875 57.4375 C-26.64910072 60.95107349 -27.59856392 64.18635727 -28 68 C-28.66 67.67 -29.32 67.34 -30 67 C-25.4364571 44.97761835 -16.25766221 16.25766221 0 0 Z " fill="#0DB5FB" transform="translate(279,301)"/>
<path d="M0 0 C3.22805481 3.02630138 6.01125793 6.20929757 8.75 9.6875 C12.94916282 15.00169475 17.39193572 20.03811725 22 25 C22.55042969 25.60457031 23.10085938 26.20914063 23.66796875 26.83203125 C29.15670538 32.61892148 35.63188487 37.23848124 42 42 C42.79019531 42.59296875 43.58039063 43.1859375 44.39453125 43.796875 C45.18923828 44.39242187 45.18923828 44.39242187 46 45 C45.505 45.99 45.505 45.99 45 47 C43.16136495 45.88368586 41.32920277 44.75670373 39.5 43.625 C38.4790625 42.99851562 37.458125 42.37203125 36.40625 41.7265625 C35.6121875 41.15679688 34.818125 40.58703125 34 40 C34 39.34 34 38.68 34 38 C33.4225 37.731875 32.845 37.46375 32.25 37.1875 C29.94449957 35.97070811 27.97943808 34.69666121 26 33 C26 32.34 26 31.68 26 31 C25.01 30.67 24.02 30.34 23 30 C14.5097237 22.15401111 5.45352189 12.23731302 0 2 C0 1.34 0 0.68 0 0 Z " fill="#078AFC" transform="translate(409,563)"/>
<path d="M0 0 C1.09731445 0.00676758 1.09731445 0.00676758 2.21679688 0.01367188 C3.99873419 0.02531852 5.78062863 0.04324809 7.5625 0.0625 C7.5625 0.3925 7.5625 0.7225 7.5625 1.0625 C6.56005249 1.17525269 6.56005249 1.17525269 5.53735352 1.2902832 C-7.87379525 2.81236863 -21.18403598 4.49202073 -34.4375 7.0625 C-34.7675 6.4025 -35.0975 5.7425 -35.4375 5.0625 C-32.25065572 4.4134032 -29.06291405 3.76882052 -25.875 3.125 C-24.97974609 2.94259766 -24.08449219 2.76019531 -23.16210938 2.57226562 C-15.37784485 1.0040072 -7.94632555 -0.09451256 0 0 Z " fill="#0CB6FB" transform="translate(424.4375,218.9375)"/>
<path d="M0 0 C9.87509478 5.42954499 18.61462801 15.73644541 25 25 C25 25.66 25 26.32 25 27 C25.66 27 26.32 27 27 27 C28.38938077 28.96147874 29.7260411 30.96166576 31 33 C30.67 33.66 30.34 34.32 30 35 C25.47003245 29.80711037 21.20290113 24.45965098 17 19 C12.45102371 13.11308951 7.27258876 8.30117843 1.57421875 3.55078125 C1.05472656 3.03902344 0.53523437 2.52726562 0 2 C0 1.34 0 0.68 0 0 Z " fill="#0C8BF7" transform="translate(718,269)"/>
<path d="M0 0 C2 0 2 0 3.625 1.3125 C5 3 5 3 5 6 C5.66 6 6.32 6 7 6 C7 6.66 7 7.32 7 8 C7.99 8.33 8.98 8.66 10 9 C15 14.46511628 15 14.46511628 15 17 C14.34 17 13.68 17 13 17 C13 16.34 13 15.68 13 15 C12.01 14.67 11.02 14.34 10 14 C8.39187335 12.26773725 6.85802684 10.4654991 5.375 8.625 C4.57835937 7.64789062 3.78171875 6.67078125 2.9609375 5.6640625 C1 3 1 3 0 0 Z " fill="#0D8AF8" transform="translate(288,680)"/>
<path d="M0 0 C0 0.66 0 1.32 0 2 C-2.95497154 3.61429001 -5.70907107 4.54766761 -9 5.25 C-10.2684375 5.53617187 -10.2684375 5.53617187 -11.5625 5.828125 C-14.35711048 6.02518087 -15.65032797 5.45766691 -18 4 C-15.37569876 3.3304744 -12.75063343 2.66426282 -10.125 2 C-9.00544922 1.71382813 -9.00544922 1.71382813 -7.86328125 1.421875 C-2.2265625 0 -2.2265625 0 0 0 Z " fill="#08A6FD" transform="translate(440,389)"/>
<path d="M0 0 C5.65253308 1.37031105 8.5113541 5.67689413 12 10 C8.00102358 10 6.93298448 8.64683965 4 6 C0 1.35135135 0 1.35135135 0 0 Z " fill="#0E89F7" transform="translate(303,697)"/>
<path d="M0 0 C-3.3340947 2.19097652 -6.04179141 3.43454163 -10 4 C-9.67 2.68 -9.34 1.36 -9 0 C-5.62182575 -0.84454356 -3.32534757 -1.10844919 0 0 Z " fill="#07A7FE" transform="translate(421,395)"/>
<path d="M0 0 C0.66 0 1.32 0 2 0 C2 1.65 2 3.3 2 5 C1.67 5 1.34 5 1 5 C0.67 7.31 0.34 9.62 0 12 C-0.33 12 -0.66 12 -1 12 C-2.11658501 7.31034294 -1.80619523 4.46236469 0 0 Z " fill="#08B0FF" transform="translate(386,388)"/>
<path d="M0 0 C-0.66 1.32 -1.32 2.64 -2 4 C-4.31 3.67 -6.62 3.34 -9 3 C-3.2 0 -3.2 0 0 0 Z " fill="#08A8FE" transform="translate(450,386)"/>
<path d="M0 0 C-0.33 0.99 -0.66 1.98 -1 3 C-4.0625 4.1875 -4.0625 4.1875 -7 5 C-7.33 4.34 -7.66 3.68 -8 3 C-2.25 0 -2.25 0 0 0 Z " fill="#08A5FE" transform="translate(476,376)"/>
<path d="" fill="#1D77F1" transform="translate(0,0)"/>
<path d="M0 0 C2 1 2 1 2 1 Z " fill="#1B71F0" transform="translate(628,751)"/>
<path d="" fill="#1F99F0" transform="translate(0,0)"/>
<path d="" fill="#0FAAFE" transform="translate(0,0)"/>
<path d="M0 0 C2 1 2 1 2 1 Z " fill="#12B5FE" transform="translate(417,392)"/>
<path d="M0 0 C2 1 2 1 2 1 Z " fill="#12B5FE" transform="translate(449,384)"/>
<path d="M0 0 C2 1 2 1 2 1 Z " fill="#19ABF4" transform="translate(598,217)"/>
<path d="M0 0 C2 1 2 1 2 1 Z " fill="#1AABF5" transform="translate(595,217)"/>
<path d="M0 0 C2 1 2 1 2 1 Z " fill="#1DBAF6" transform="translate(419,217)"/>
<path d="" fill="#2D2E2F" transform="translate(0,0)"/>
<path d="" fill="#2A2F34" transform="translate(0,0)"/>
<path d="" fill="#1D7EEF" transform="translate(0,0)"/>
<path d="" fill="#1B84F2" transform="translate(0,0)"/>
<path d="" fill="#1982F2" transform="translate(0,0)"/>
<path d="" fill="#1984F2" transform="translate(0,0)"/>
<path d="" fill="#1D8CED" transform="translate(0,0)"/>
<path d="" fill="#186CF3" transform="translate(0,0)"/>
<path d="" fill="#1D8FF0" transform="translate(0,0)"/>
<path d="" fill="#1B95EC" transform="translate(0,0)"/>
<path d="" fill="#1C96ED" transform="translate(0,0)"/>
<path d="" fill="#2096F0" transform="translate(0,0)"/>
<path d="" fill="#1B9AF2" transform="translate(0,0)"/>
<path d="" fill="#1CA0F3" transform="translate(0,0)"/>
<path d="" fill="#1EA2F3" transform="translate(0,0)"/>
<path d="" fill="#138DFA" transform="translate(0,0)"/>
<path d="" fill="#128EFF" transform="translate(0,0)"/>
<path d="" fill="#1291FF" transform="translate(0,0)"/>
<path d="" fill="#108BFF" transform="translate(0,0)"/>
<path d="" fill="#1D74F3" transform="translate(0,0)"/>
<path d="" fill="#1CA0F3" transform="translate(0,0)"/>
<path d="" fill="#118AFC" transform="translate(0,0)"/>
<path d="" fill="#1DA4F4" transform="translate(0,0)"/>
<path d="" fill="#128AFD" transform="translate(0,0)"/>
<path d="" fill="#20AAF3" transform="translate(0,0)"/>
<path d="" fill="#1EA9F1" transform="translate(0,0)"/>
<path d="" fill="#1289FC" transform="translate(0,0)"/>
<path d="" fill="#10A6FC" transform="translate(0,0)"/>
<path d="" fill="#10A1FD" transform="translate(0,0)"/>
<path d="" fill="#0F8FFE" transform="translate(0,0)"/>
<path d="" fill="#1291FE" transform="translate(0,0)"/>
<path d="" fill="#10A8FF" transform="translate(0,0)"/>
<path d="" fill="#0FA6FF" transform="translate(0,0)"/>
<path d="" fill="#1EB9F8" transform="translate(0,0)"/>
<path d="" fill="#13B7FF" transform="translate(0,0)"/>
<path d="" fill="#12A3FD" transform="translate(0,0)"/>
<path d="" fill="#11B7FF" transform="translate(0,0)"/>
<path d="" fill="#0EB7FF" transform="translate(0,0)"/>
<path d="" fill="#0FA7FF" transform="translate(0,0)"/>
<path d="" fill="#0EA6FB" transform="translate(0,0)"/>
<path d="" fill="#0FA8FF" transform="translate(0,0)"/>
<path d="" fill="#22B7F5" transform="translate(0,0)"/>
<path d="" fill="#0FABFF" transform="translate(0,0)"/>
<path d="" fill="#1FB6F5" transform="translate(0,0)"/>
<path d="" fill="#1CB9F4" transform="translate(0,0)"/>
<path d="" fill="#10B2FE" transform="translate(0,0)"/>
<path d="" fill="#20BBF6" transform="translate(0,0)"/>
<path d="" fill="#1CBBF5" transform="translate(0,0)"/>
<path d="" fill="#0CB3FF" transform="translate(0,0)"/>
<path d="" fill="#1D8DED" transform="translate(0,0)"/>
<path d="" fill="#1EBDF6" transform="translate(0,0)"/>
<path d="" fill="#1FBBF7" transform="translate(0,0)"/>
<path d="" fill="#1EBDF5" transform="translate(0,0)"/>
<path d="" fill="#22BBF4" transform="translate(0,0)"/>
<path d="" fill="#199FF4" transform="translate(0,0)"/>
<path d="" fill="#1BA5F7" transform="translate(0,0)"/>
<path d="" fill="#19A9F3" transform="translate(0,0)"/>
<path d="" fill="#1CAFF5" transform="translate(0,0)"/>
<path d="" fill="#1AB2F7" transform="translate(0,0)"/>
<path d="" fill="#1AB3F8" transform="translate(0,0)"/>
<path d="" fill="#1AB8F4" transform="translate(0,0)"/>
<path d="" fill="#1AB8F8" transform="translate(0,0)"/>
<path d="" fill="#1ABDF7" transform="translate(0,0)"/>
<path d="" fill="#1ABAF8" transform="translate(0,0)"/>
</svg>
